<svg width="15" height="14" viewBox="0 0 15 14" fill="none" xmlns="http://www.w3.org/2000/svg">
<path d="M14.5849 3.2231C14.3615 2.70979 14.0393 2.24463 13.6365 1.85366C13.2333 1.46153 12.758 1.14991 12.2363 0.935745C11.6954 0.712787 11.1152 0.598665 10.5295 0.600002C9.70771 0.600002 8.90595 0.82328 8.2092 1.24503C8.04252 1.34591 7.88417 1.45673 7.73415 1.57746C7.58413 1.45673 7.42578 1.34591 7.2591 1.24503C6.56235 0.82328 5.76059 0.600002 4.93883 0.600002C4.3471 0.600002 3.7737 0.712468 3.23197 0.935745C2.70857 1.15075 2.23685 1.46003 1.83181 1.85366C1.42842 2.24419 1.10619 2.70945 0.883365 3.2231C0.651672 3.75731 0.533325 4.3246 0.533325 4.90843C0.533325 5.45918 0.646672 6.03308 0.871697 6.61691C1.06005 7.10481 1.33008 7.61091 1.67512 8.12196C2.22185 8.93073 2.9736 9.77422 3.90705 10.6293C5.45389 12.0467 6.98573 13.0258 7.05074 13.0655L7.44578 13.3169C7.6208 13.4277 7.84583 13.4277 8.02085 13.3169L8.4159 13.0655C8.4809 13.0241 10.0111 12.0467 11.5596 10.6293C12.493 9.77422 13.2448 8.93073 13.7915 8.12196C14.1366 7.61091 14.4082 7.10481 14.5949 6.61691C14.82 6.03308 14.9333 5.45918 14.9333 4.90843C14.935 4.3246 14.8166 3.75731 14.5849 3.2231Z" fill="#FF8585"/>
</svg>
